<mxfile host="app.diagrams.net" modified="2025-09-01T00:00:00.000Z" agent="5.0" etag="" version="22.1.16" type="device">
  <diagram name="Airbnb Data Flow Diagram" id="airbnb-dfd">
    <mxGraphModel dx="1422" dy="794" grid="1" gridSize="10" guides="1" tooltips="1" connect="1" arrows="1" fold="1" page="1" pageScale="1" pageWidth="1654" pageHeight="1169" math="0" shadow="0">
      <root>
        <mxCell id="0" />
        <mxCell id="1" parent="0" />
        
        <!-- External Entities -->
        <mxCell id="guest" value="Guest" style="rounded=1;whiteSpace=wrap;html=1;fillColor=#dae8fc;strokeColor=#6c8ebf;" vertex="1" parent="1">
          <mxGeometry x="50" y="200" width="80" height="60" as="geometry" />
        </mxCell>
        
        <mxCell id="host" value="Host" style="rounded=1;whiteSpace=wrap;html=1;fillColor=#dae8fc;strokeColor=#6c8ebf;" vertex="1" parent="1">
          <mxGeometry x="50" y="350" width="80" height="60" as="geometry" />
        </mxCell>
        
        <mxCell id="admin" value="Admin" style="rounded=1;whiteSpace=wrap;html=1;fillColor=#dae8fc;strokeColor=#6c8ebf;" vertex="1" parent="1">
          <mxGeometry x="50" y="500" width="80" height="60" as="geometry" />
        </mxCell>
        
        <mxCell id="payment-gateway" value="Payment&#10;Gateway&#10;(Stripe/PayPal)" style="rounded=1;whiteSpace=wrap;html=1;fillColor=#fff2cc;strokeColor=#d6b656;" vertex="1" parent="1">
          <mxGeometry x="1400" y="400" width="120" height="80" as="geometry" />
        </mxCell>
        
        <mxCell id="notification-service" value="Notification&#10;Service&#10;(Email/SMS)" style="rounded=1;whiteSpace=wrap;html=1;fillColor=#fff2cc;strokeColor=#d6b656;" vertex="1" parent="1">
          <mxGeometry x="1400" y="200" width="120" height="80" as="geometry" />
        </mxCell>
        
        <!-- Core Processes -->
        <mxCell id="user-auth" value="1.0&#10;User Authentication&#10;&amp; Registration" style="ellipse;whiteSpace=wrap;html=1;fillColor=#e1d5e7;strokeColor=#9673a6;" vertex="1" parent="1">
          <mxGeometry x="250" y="150" width="120" height="80" as="geometry" />
        </mxCell>
        
        <mxCell id="property-mgmt" value="2.0&#10;Property&#10;Management" style="ellipse;whiteSpace=wrap;html=1;fillColor=#e1d5e7;strokeColor=#9673a6;" vertex="1" parent="1">
          <mxGeometry x="250" y="300" width="120" height="80" as="geometry" />
        </mxCell>
        
        <mxCell id="search-filter" value="3.0&#10;Search &amp;&#10;Filter Properties" style="ellipse;whiteSpace=wrap;html=1;fillColor=#e1d5e7;strokeColor=#9673a6;" vertex="1" parent="1">
          <mxGeometry x="450" y="200" width="120" height="80" as="geometry" />
        </mxCell>
        
        <mxCell id="booking-mgmt" value="4.0&#10;Booking&#10;Management" style="ellipse;whiteSpace=wrap;html=1;fillColor=#e1d5e7;strokeColor=#9673a6;" vertex="1" parent="1">
          <mxGeometry x="650" y="300" width="120" height="80" as="geometry" />
        </mxCell>
        
        <mxCell id="payment-proc" value="5.0&#10;Payment&#10;Processing" style="ellipse;whiteSpace=wrap;html=1;fillColor=#e1d5e7;strokeColor=#9673a6;" vertex="1" parent="1">
          <mxGeometry x="900" y="350" width="120" height="80" as="geometry" />
        </mxCell>
        
        <mxCell id="review-rating" value="6.0&#10;Reviews &amp;&#10;Ratings" style="ellipse;whiteSpace=wrap;html=1;fillColor=#e1d5e7;strokeColor=#9673a6;" vertex="1" parent="1">
          <mxGeometry x="650" y="500" width="120" height="80" as="geometry" />
        </mxCell>
        
        <mxCell id="messaging" value="7.0&#10;Messaging&#10;&amp; Communication" style="ellipse;whiteSpace=wrap;html=1;fillColor=#e1d5e7;strokeColor=#9673a6;" vertex="1" parent="1">
          <mxGeometry x="900" y="150" width="120" height="80" as="geometry" />
        </mxCell>
        
        <mxCell id="admin-mgmt" value="8.0&#10;Admin&#10;Management" style="ellipse;whiteSpace=wrap;html=1;fillColor=#e1d5e7;strokeColor=#9673a6;" vertex="1" parent="1">
          <mxGeometry x="450" y="500" width="120" height="80" as="geometry" />
        </mxCell>
        
        <!-- Data Stores -->
        <mxCell id="user-store" value="D1 | Users Database" style="html=1;dashed=0;whiteSpace=wrap;shape=mxgraph.dfd.dataStoreID;align=left;spacingLeft=3;points=[[0,0],[0.5,0],[1,0],[0,0.5],[1,0.5],[0,1],[0.5,1],[1,1]];fillColor=#f8cecc;strokeColor=#b85450;" vertex="1" parent="1">
          <mxGeometry x="250" y="50" width="120" height="30" as="geometry" />
        </mxCell>
        
        <mxCell id="property-store" value="D2 | Properties Database" style="html=1;dashed=0;whiteSpace=wrap;shape=mxgraph.dfd.dataStoreID;align=left;spacingLeft=3;points=[[0,0],[0.5,0],[1,0],[0,0.5],[1,0.5],[0,1],[0.5,1],[1,1]];fillColor=#f8cecc;strokeColor=#b85450;" vertex="1" parent="1">
          <mxGeometry x="450" y="50" width="120" height="30" as="geometry" />
        </mxCell>
        
        <mxCell id="booking-store" value="D3 | Bookings Database" style="html=1;dashed=0;whiteSpace=wrap;shape=mxgraph.dfd.dataStoreID;align=left;spacingLeft=3;points=[[0,0],[0.5,0],[1,0],[0,0.5],[1,0.5],[0,1],[0.5,1],[1,1]];fillColor=#f8cecc;strokeColor=#b85450;" vertex="1" parent="1">
          <mxGeometry x="650" y="50" width="120" height="30" as="geometry" />
        </mxCell>
        
        <mxCell id="payment-store" value="D4 | Payments Database" style="html=1;dashed=0;whiteSpace=wrap;shape=mxgraph.dfd.dataStoreID;align=left;spacingLeft=3;points=[[0,0],[0.5,0],[1,0],[0,0.5],[1,0.5],[0,1],[0.5,1],[1,1]];fillColor=#f8cecc;strokeColor=#b85450;" vertex="1" parent="1">
          <mxGeometry x="850" y="50" width="120" height="30" as="geometry" />
        </mxCell>
        
        <mxCell id="review-store" value="D5 | Reviews Database" style="html=1;dashed=0;whiteSpace=wrap;shape=mxgraph.dfd.dataStoreID;align=left;spacingLeft=3;points=[[0,0],[0.5,0],[1,0],[0,0.5],[1,0.5],[0,1],[0.5,1],[1,1]];fillColor=#f8cecc;strokeColor=#b85450;" vertex="1" parent="1">
          <mxGeometry x="1050" y="50" width="120" height="30" as="geometry" />
        </mxCell>
        
        <mxCell id="message-store" value="D6 | Messages Database" style="html=1;dashed=0;whiteSpace=wrap;shape=mxgraph.dfd.dataStoreID;align=left;spacingLeft=3;points=[[0,0],[0.5,0],[1,0],[0,0.5],[1,0.5],[0,1],[0.5,1],[1,1]];fillColor=#f8cecc;strokeColor=#b85450;" vertex="1" parent="1">
          <mxGeometry x="900" y="50" width="120" height="30" as="geometry" />
        </mxCell>
        
        <mxCell id="cache-store" value="D7 | Redis Cache" style="html=1;dashed=0;whiteSpace=wrap;shape=mxgraph.dfd.dataStoreID;align=left;spacingLeft=3;points=[[0,0],[0.5,0],[1,0],[0,0.5],[1,0.5],[0,1],[0.5,1],[1,1]];fillColor=#d5e8d4;strokeColor=#82b366;" vertex="1" parent="1">
          <mxGeometry x="450" y="650" width="120" height="30" as="geometry" />
        </mxCell>
        
        <mxCell id="search-store" value="D8 | Elasticsearch Index" style="html=1;dashed=0;whiteSpace=wrap;shape=mxgraph.dfd.dataStoreID;align=left;spacingLeft=3;points=[[0,0],[0.5,0],[1,0],[0,0.5],[1,0.5],[0,1],[0.5,1],[1,1]];fillColor=#d5e8d4;strokeColor=#82b366;" vertex="1" parent="1">
          <mxGeometry x="650" y="650" width="120" height="30" as="geometry" />
        </mxCell>
        
        <!-- Data Flow Arrows -->
        
        <!-- Guest flows -->
        <mxCell id="flow1" value="Registration Data" style="edgeStyle=orthogonalEdgeStyle;rounded=0;orthogonalLoop=1;jettySize=auto;html=1;" edge="1" parent="1" source="guest" target="user-auth">
          <mxGeometry relative="1" as="geometry" />
        </mxCell>
        
        <mxCell id="flow2" value="Login Credentials" style="edgeStyle=orthogonalEdgeStyle;rounded=0;orthogonalLoop=1;jettySize=auto;html=1;" edge="1" parent="1" source="guest" target="user-auth">
          <mxGeometry relative="1" as="geometry">
            <mxPoint x="180" y="220" as="sourcePoint" />
            <mxPoint x="250" y="180" as="targetPoint" />
          </mxGeometry>
        </mxCell>
        
        <mxCell id="flow3" value="Search Criteria" style="edgeStyle=orthogonalEdgeStyle;rounded=0;orthogonalLoop=1;jettySize=auto;html=1;" edge="1" parent="1" source="guest" target="search-filter">
          <mxGeometry relative="1" as="geometry" />
        </mxCell>
        
        <mxCell id="flow4" value="Booking Request" style="edgeStyle=orthogonalEdgeStyle;rounded=0;orthogonalLoop=1;jettySize=auto;html=1;" edge="1" parent="1" source="guest" target="booking-mgmt">
          <mxGeometry relative="1" as="geometry" />
        </mxCell>
        
        <mxCell id="flow5" value="Review Data" style="edgeStyle=orthogonalEdgeStyle;rounded=0;orthogonalLoop=1;jettySize=auto;html=1;" edge="1" parent="1" source="guest" target="review-rating">
          <mxGeometry relative="1" as="geometry" />
        </mxCell>
        
        <mxCell id="flow6" value="Messages" style="edgeStyle=orthogonalEdgeStyle;rounded=0;orthogonalLoop=1;jettySize=auto;html=1;" edge="1" parent="1" source="guest" target="messaging">
          <mxGeometry relative="1" as="geometry" />
        </mxCell>
        
        <!-- Host flows -->
        <mxCell id="flow7" value="Property Details" style="edgeStyle=orthogonalEdgeStyle;rounded=0;orthogonalLoop=1;jettySize=auto;html=1;" edge="1" parent="1" source="host" target="property-mgmt">
          <mxGeometry relative="1" as="geometry" />
        </mxCell>
        
        <mxCell id="flow8" value="Booking Response" style="edgeStyle=orthogonalEdgeStyle;rounded=0;orthogonalLoop=1;jettySize=auto;html=1;" edge="1" parent="1" source="host" target="booking-mgmt">
          <mxGeometry relative="1" as="geometry" />
        </mxCell>
        
        <mxCell id="flow9" value="Host Reviews" style="edgeStyle=orthogonalEdgeStyle;rounded=0;orthogonalLoop=1;jettySize=auto;html=1;" edge="1" parent="1" source="host" target="review-rating">
          <mxGeometry relative="1" as="geometry" />
        </mxCell>
        
        <!-- Admin flows -->
        <mxCell id="flow10" value="Admin Commands" style="edgeStyle=orthogonalEdgeStyle;rounded=0;orthogonalLoop=1;jettySize=auto;html=1;" edge="1" parent="1" source="admin" target="admin-mgmt">
          <mxGeometry relative="1" as="geometry" />
        </mxCell>
        
        <!-- Process to Data Store flows -->
        <mxCell id="flow11" value="User Data" style="edgeStyle=orthogonalEdgeStyle;rounded=0;orthogonalLoop=1;jettySize=auto;html=1;" edge="1" parent="1" source="user-auth" target="user-store">
          <mxGeometry relative="1" as="geometry" />
        </mxCell>
        
        <mxCell id="flow12" value="Property Info" style="edgeStyle=orthogonalEdgeStyle;rounded=0;orthogonalLoop=1;jettySize=auto;html=1;" edge="1" parent="1" source="property-mgmt" target="property-store">
          <mxGeometry relative="1" as="geometry" />
        </mxCell>
        
        <mxCell id="flow13" value="Search Index" style="edgeStyle=orthogonalEdgeStyle;rounded=0;orthogonalLoop=1;jettySize=auto;html=1;" edge="1" parent="1" source="search-filter" target="search-store">
          <mxGeometry relative="1" as="geometry" />
        </mxCell>
        
        <mxCell id="flow14" value="Booking Details" style="edgeStyle=orthogonalEdgeStyle;rounded=0;orthogonalLoop=1;jettySize=auto;html=1;" edge="1" parent="1" source="booking-mgmt" target="booking-store">
          <mxGeometry relative="1" as="geometry" />
        </mxCell>
        
        <mxCell id="flow15" value="Payment Info" style="edgeStyle=orthogonalEdgeStyle;rounded=0;orthogonalLoop=1;jettySize=auto;html=1;" edge="1" parent="1" source="payment-proc" target="payment-store">
          <mxGeometry relative="1" as="geometry" />
        </mxCell>
        
        <mxCell id="flow16" value="Review Data" style="edgeStyle=orthogonalEdgeStyle;rounded=0;orthogonalLoop=1;jettySize=auto;html=1;" edge="1" parent="1" source="review-rating" target="review-store">
          <mxGeometry relative="1" as="geometry" />
        </mxCell>
        
        <mxCell id="flow17" value="Messages" style="edgeStyle=orthogonalEdgeStyle;rounded=0;orthogonalLoop=1;jettySize=auto;html=1;" edge="1" parent="1" source="messaging" target="message-store">
          <mxGeometry relative="1" as="geometry" />
        </mxCell>
        
        <!-- Process interactions -->
        <mxCell id="flow18" value="Payment Request" style="edgeStyle=orthogonalEdgeStyle;rounded=0;orthogonalLoop=1;jettySize=auto;html=1;" edge="1" parent="1" source="booking-mgmt" target="payment-proc">
          <mxGeometry relative="1" as="geometry" />
        </mxCell>
        
        <mxCell id="flow19" value="Property Data" style="edgeStyle=orthogonalEdgeStyle;rounded=0;orthogonalLoop=1;jettySize=auto;html=1;" edge="1" parent="1" source="property-store" target="search-filter">
          <mxGeometry relative="1" as="geometry" />
        </mxCell>
        
        <mxCell id="flow20" value="User Verification" style="edgeStyle=orthogonalEdgeStyle;rounded=0;orthogonalLoop=1;jettySize=auto;html=1;" edge="1" parent="1" source="user-store" target="booking-mgmt">
          <mxGeometry relative="1" as="geometry" />
        </mxCell>
        
        <!-- External service flows -->
        <mxCell id="flow21" value="Payment Processing" style="edgeStyle=orthogonalEdgeStyle;rounded=0;orthogonalLoop=1;jettySize=auto;html=1;" edge="1" parent="1" source="payment-proc" target="payment-gateway">
          <mxGeometry relative="1" as="geometry" />
        </mxCell>
        
        <mxCell id="flow22" value="Payment Status" style="edgeStyle=orthogonalEdgeStyle;rounded=0;orthogonalLoop=1;jettySize=auto;html=1;" edge="1" parent="1" source="payment-gateway" target="payment-proc">
          <mxGeometry relative="1" as="geometry" />
        </mxCell>
        
        <mxCell id="flow23" value="Notifications" style="edgeStyle=orthogonalEdgeStyle;rounded=0;orthogonalLoop=1;jettySize=auto;html=1;" edge="1" parent="1" source="messaging" target="notification-service">
          <mxGeometry relative="1" as="geometry" />
        </mxCell>
        
        <mxCell id="flow24" value="Email/SMS" style="edgeStyle=orthogonalEdgeStyle;rounded=0;orthogonalLoop=1;jettySize=auto;html=1;" edge="1" parent="1" source="notification-service" target="guest">
          <mxGeometry relative="1" as="geometry" />
        </mxCell>
        
        <!-- Cache interactions -->
        <mxCell id="flow25" value="Cache Data" style="edgeStyle=orthogonalEdgeStyle;rounded=0;orthogonalLoop=1;jettySize=auto;html=1;" edge="1" parent="1" source="search-filter" target="cache-store">
          <mxGeometry relative="1" as="geometry" />
        </mxCell>
        
        <mxCell id="flow26" value="Cached Results" style="edgeStyle=orthogonalEdgeStyle;rounded=0;orthogonalLoop=1;jettySize=auto;html=1;" edge="1" parent="1" source="cache-store" target="search-filter">
          <mxGeometry relative="1" as="geometry" />
        </mxCell>
        
        <!-- Return flows -->
        <mxCell id="flow27" value="Search Results" style="edgeStyle=orthogonalEdgeStyle;rounded=0;orthogonalLoop=1;jettySize=auto;html=1;entryX=0;entryY=0.75;" edge="1" parent="1" source="search-filter" target="guest">
          <mxGeometry relative="1" as="geometry">
            <Array as="points">
              <mxPoint x="400" y="240" />
              <mxPoint x="400" y="245" />
              <mxPoint x="130" y="245" />
            </Array>
          </mxGeometry>
        </mxCell>
        
        <mxCell id="flow28" value="Booking Confirmation" style="edgeStyle=orthogonalEdgeStyle;rounded=0;orthogonalLoop=1;jettySize=auto;html=1;" edge="1" parent="1" source="booking-mgmt" target="guest">
          <mxGeometry relative="1" as="geometry">
            <Array as="points">
              <mxPoint x="600" y="340" />
              <mxPoint x="600" y="280" />
              <mxPoint x="30" y="280" />
              <mxPoint x="30" y="230" />
            </Array>
          </mxGeometry>
        </mxCell>
        
        <mxCell id="flow29" value="Property Status" style="edgeStyle=orthogonalEdgeStyle;rounded=0;orthogonalLoop=1;jettySize=auto;html=1;" edge="1" parent="1" source="property-mgmt" target="host">
          <mxGeometry relative="1" as="geometry">
            <Array as="points">
              <mxPoint x="200" y="340" />
              <mxPoint x="200" y="380" />
            </Array>
          </mxGeometry>
        </mxCell>
        
        <!-- Legend -->
        <mxCell id="legend-bg" value="" style="rounded=0;whiteSpace=wrap;html=1;fillColor=#f5f5f5;strokeColor=#666666;" vertex="1" parent="1">
          <mxGeometry x="50" y="700" width="400" height="150" as="geometry" />
        </mxCell>
        
        <mxCell id="legend-title" value="LEGEND" style="text;html=1;strokeColor=none;fillColor=none;align=center;verticalAlign=middle;whiteSpace=wrap;rounded=0;fontSize=14;fontStyle=1;" vertex="1" parent="1">
          <mxGeometry x="220" y="710" width="60" height="30" as="geometry" />
        </mxCell>
        
        <mxCell id="legend-entity" value="External Entity" style="rounded=1;whiteSpace=wrap;html=1;fillColor=#dae8fc;strokeColor=#6c8ebf;" vertex="1" parent="1">
          <mxGeometry x="70" y="750" width="80" height="30" as="geometry" />
        </mxCell>
        
        <mxCell id="legend-process" value="Process" style="ellipse;whiteSpace=wrap;html=1;fillColor=#e1d5e7;strokeColor=#9673a6;" vertex="1" parent="1">
          <mxGeometry x="170" y="750" width="60" height="30" as="geometry" />
        </mxCell>
        
        <mxCell id="legend-datastore" value="Data Store" style="html=1;dashed=0;whiteSpace=wrap;shape=mxgraph.dfd.dataStoreID;align=left;spacingLeft=3;fillColor=#f8cecc;strokeColor=#b85450;" vertex="1" parent="1">
          <mxGeometry x="250" y="750" width="80" height="30" as="geometry" />
        </mxCell>
        
        <mxCell id="legend-external" value="External Service" style="rounded=1;whiteSpace=wrap;html=1;fillColor=#fff2cc;strokeColor=#d6b656;" vertex="1" parent="1">
          <mxGeometry x="350" y="750" width="80" height="30" as="geometry" />
        </mxCell>
        
        <mxCell id="legend-cache" value="Cache/Index" style="html=1;dashed=0;whiteSpace=wrap;shape=mxgraph.dfd.dataStoreID;align=left;spacingLeft=3;fillColor=#d5e8d4;strokeColor=#82b366;" vertex="1" parent="1">
          <mxGeometry x="70" y="800" width="80" height="30" as="geometry" />
        </mxCell>
        
        <!-- Title -->
        <mxCell id="title" value="Airbnb Clone Backend - Data Flow Diagram (Level 0)" style="text;html=1;strokeColor=none;fillColor=none;align=center;verticalAlign=middle;whiteSpace=wrap;rounded=0;fontSize=18;fontStyle=1;" vertex="1" parent="1">
          <mxGeometry x="600" y="10" width="400" height="30" as="geometry" />
        </mxCell>
        
      </root>
    </mxGraphModel>
  </diagram>
</mxfile>
